HIERARCHY
ROOT Hips
{
	OFFSET 0.000000 100.481300 0.000000
	CHANNELS 6 Xposition Yposition Zposition Xrotation Yrotation Zrotation 
	JOINT Spine
	{
		OFFSET -0.279200 12.230698 -2.892100
		CHANNELS 3 Xrotation Yrotation Zrotation
		JOINT Spine1
		{
			OFFSET -0.232667 10.192268 -1.242267
			CHANNELS 3 Xrotation Yrotation Zrotation
			JOINT Spine1_split
			{
				OFFSET -0.232667 10.192268 -1.242267
				CHANNELS 3 Xrotation Yrotation Zrotation
				JOINT Spine2
				{
					OFFSET -0.232667 10.192268 -1.242267
					CHANNELS 3 Xrotation Yrotation Zrotation
					JOINT Neck
					{
						OFFSET -0.418800 17.814194 8.416900
						CHANNELS 3 Xrotation Yrotation Zrotation
						JOINT Head
						{
							OFFSET 0.000000 7.031097 3.806800
							CHANNELS 3 Xrotation Yrotation Zrotation
							JOINT HeadTop_End
							{
								OFFSET 0.000000 24.646606 12.978600
								CHANNELS 3 Xrotation Yrotation Zrotation
								End Site
								{
									OFFSET 0.000000 0.000000 0.000000
								}
							}
						}
					}
					JOINT LeftShoulder
					{
						OFFSET 8.476499 7.247704 -3.868750
						CHANNELS 3 Xrotation Yrotation Zrotation
						JOINT LeftShoulder_split
						{
							OFFSET 8.476499 7.247704 -3.868750
							CHANNELS 3 Xrotation Yrotation Zrotation
							JOINT LeftArm
							{
								OFFSET 9.308998 -2.777710 0.208600
								CHANNELS 3 Xrotation Yrotation Zrotation
								JOINT LeftForeArm
								{
									OFFSET 29.972298 0.000000 0.000000
									CHANNELS 3 Xrotation Yrotation Zrotation
									JOINT LeftHand
									{
										OFFSET 26.026505 0.000000 0.000000
										CHANNELS 3 Xrotation Yrotation Zrotation
										JOINT LeftHandThumb1
										{
											OFFSET 12.240501 -7.147949 9.207150
											CHANNELS 3 Xrotation Yrotation Zrotation
											JOINT LeftHandThumb2
											{
												OFFSET 4.138618 -2.389435 2.389433
												CHANNELS 3 Xrotation Yrotation Zrotation
												JOINT LeftHandThumb3
												{
													OFFSET 2.726913 -1.574387 1.574386
													CHANNELS 3 Xrotation Yrotation Zrotation
													JOINT LeftHandThumb4
													{
														OFFSET 3.941010 -2.275345 2.275342
														CHANNELS 3 Xrotation Yrotation Zrotation
														End Site
														{
															OFFSET 0.000000 0.000000 0.000000
														}
													}
												}
											}
										}
										JOINT LeftHandIndex1
										{
											OFFSET 24.424698 -1.985611 5.953459
											CHANNELS 3 Xrotation Yrotation Zrotation
											JOINT LeftHandIndex2
											{
												OFFSET 6.426697 0.000000 0.000000
												CHANNELS 3 Xrotation Yrotation Zrotation
												JOINT LeftHandIndex3
												{
													OFFSET 5.337898 0.000000 0.000000
													CHANNELS 3 Xrotation Yrotation Zrotation
													JOINT LeftHandIndex4
													{
														OFFSET 4.409401 0.000000 0.000000
														CHANNELS 3 Xrotation Yrotation Zrotation
														End Site
														{
															OFFSET 0.000000 0.000000 0.000000
														}
													}
												}
											}
										}
										JOINT LeftHandMiddle1
										{
											OFFSET 23.810104 0.000000 0.000000
											CHANNELS 3 Xrotation Yrotation Zrotation
											JOINT LeftHandMiddle2
											{
												OFFSET 7.176498 0.000000 0.000000
												CHANNELS 3 Xrotation Yrotation Zrotation
												JOINT LeftHandMiddle3
												{
													OFFSET 6.774902 0.000000 0.000000
													CHANNELS 3 Xrotation Yrotation Zrotation
													JOINT LeftHandMiddle4
													{
														OFFSET 5.403328 0.000000 0.000000
														CHANNELS 3 Xrotation Yrotation Zrotation
														End Site
														{
															OFFSET 0.000000 0.000000 0.000000
														}
													}
												}
											}
										}
										JOINT LeftHandRing1
										{
											OFFSET 22.908401 -0.839279 -6.020567
											CHANNELS 3 Xrotation Yrotation Zrotation
											JOINT LeftHandRing2
											{
												OFFSET 6.337502 0.000000 0.000000
												CHANNELS 3 Xrotation Yrotation Zrotation
												JOINT LeftHandRing3
												{
													OFFSET 5.779297 0.000000 0.000000
													CHANNELS 3 Xrotation Yrotation Zrotation
													JOINT LeftHandRing4
													{
														OFFSET 4.965698 0.000000 0.000000
														CHANNELS 3 Xrotation Yrotation Zrotation
														End Site
														{
															OFFSET 0.000000 0.000000 0.000000
														}
													}
												}
											}
										}
										JOINT LeftHandPinky1
										{
											OFFSET 20.037003 -1.530319 -10.950146
											CHANNELS 3 Xrotation Yrotation Zrotation
											JOINT LeftHandPinky2
											{
												OFFSET 5.254700 0.000000 0.000000
												CHANNELS 3 Xrotation Yrotation Zrotation
												JOINT LeftHandPinky3
												{
													OFFSET 4.810204 0.000000 0.000000
													CHANNELS 3 Xrotation Yrotation Zrotation
													JOINT LeftHandPinky4
													{
														OFFSET 3.647202 0.000000 0.000000
														CHANNELS 3 Xrotation Yrotation Zrotation
														End Site
														{
															OFFSET 0.000000 0.000000 0.000000
														}
													}
												}
											}
										}
									}
								}
							}
						}
					}
					JOINT RightShoulder
					{
						OFFSET -7.570500 7.247704 -3.868750
						CHANNELS 3 Xrotation Yrotation Zrotation
						JOINT RightShoulder_split
						{
							OFFSET -7.570500 7.247704 -3.868750
							CHANNELS 3 Xrotation Yrotation Zrotation
							JOINT RightArm
							{
								OFFSET -9.308998 -2.777710 0.208500
								CHANNELS 3 Xrotation Yrotation Zrotation
								JOINT RightForeArm
								{
									OFFSET -29.972300 0.000000 0.000000
									CHANNELS 3 Xrotation Yrotation Zrotation
									JOINT RightHand
									{
										OFFSET -26.026505 0.000000 0.000000
										CHANNELS 3 Xrotation Yrotation Zrotation
										JOINT RightHandThumb1
										{
											OFFSET -12.240601 -7.148026 9.207092
											CHANNELS 3 Xrotation Yrotation Zrotation
											JOINT RightHandThumb2
											{
												OFFSET -4.138618 -2.389435 2.389433
												CHANNELS 3 Xrotation Yrotation Zrotation
												JOINT RightHandThumb3
												{
													OFFSET -2.726974 -1.574417 1.574421
													CHANNELS 3 Xrotation Yrotation Zrotation
													JOINT RightHandThumb4
													{
														OFFSET -3.941010 -2.275345 2.275343
														CHANNELS 3 Xrotation Yrotation Zrotation
														End Site
														{
															OFFSET 0.000000 0.000000 0.000000
														}
													}
												}
											}
										}
										JOINT RightHandIndex1
										{
											OFFSET -24.424698 -1.985657 5.953444
											CHANNELS 3 Xrotation Yrotation Zrotation
											JOINT RightHandIndex2
											{
												OFFSET -6.426697 0.000000 0.000000
												CHANNELS 3 Xrotation Yrotation Zrotation
												JOINT RightHandIndex3
												{
													OFFSET -5.337898 0.000000 0.000000
													CHANNELS 3 Xrotation Yrotation Zrotation
													JOINT RightHandIndex4
													{
														OFFSET -4.409401 0.000000 0.000000
														CHANNELS 3 Xrotation Yrotation Zrotation
														End Site
														{
															OFFSET 0.000000 0.000000 0.000000
														}
													}
												}
											}
										}
										JOINT RightHandMiddle1
										{
											OFFSET -23.810097 0.000000 0.000000
											CHANNELS 3 Xrotation Yrotation Zrotation
											JOINT RightHandMiddle2
											{
												OFFSET -7.176498 0.000000 0.000000
												CHANNELS 3 Xrotation Yrotation Zrotation
												JOINT RightHandMiddle3
												{
													OFFSET -6.774902 0.000000 0.000000
													CHANNELS 3 Xrotation Yrotation Zrotation
													JOINT RightHandMiddle4
													{
														OFFSET -5.403328 0.000000 0.000000
														CHANNELS 3 Xrotation Yrotation Zrotation
														End Site
														{
															OFFSET 0.000000 0.000000 0.000000
														}
													}
												}
											}
										}
										JOINT RightHandRing1
										{
											OFFSET -22.908302 -0.839325 -6.020576
											CHANNELS 3 Xrotation Yrotation Zrotation
											JOINT RightHandRing2
											{
												OFFSET -6.337502 0.000000 0.000000
												CHANNELS 3 Xrotation Yrotation Zrotation
												JOINT RightHandRing3
												{
													OFFSET -5.779297 0.000000 0.000000
													CHANNELS 3 Xrotation Yrotation Zrotation
													JOINT RightHandRing4
													{
														OFFSET -4.965698 0.000000 0.000000
														CHANNELS 3 Xrotation Yrotation Zrotation
														End Site
														{
															OFFSET 0.000000 0.000000 0.000000
														}
													}
												}
											}
										}
										JOINT RightHandPinky1
										{
											OFFSET -20.037003 -1.530334 -10.950259
											CHANNELS 3 Xrotation Yrotation Zrotation
											JOINT RightHandPinky2
											{
												OFFSET -5.254700 0.000000 0.000000
												CHANNELS 3 Xrotation Yrotation Zrotation
												JOINT RightHandPinky3
												{
													OFFSET -4.810204 0.000000 0.000000
													CHANNELS 3 Xrotation Yrotation Zrotation
													JOINT RightHandPinky4
													{
														OFFSET -3.647202 0.000000 0.000000
														CHANNELS 3 Xrotation Yrotation Zrotation
														End Site
														{
															OFFSET 0.000000 0.000000 0.000000
														}
													}
												}
											}
										}
									}
								}
							}
						}
					}
				}
			}
		}
	}
	JOINT LeftUpLeg
	{
		OFFSET 15.427100 -6.655098 0.678600
		CHANNELS 3 Xrotation Yrotation Zrotation
		JOINT LeftLeg
		{
			OFFSET 4.081073 -39.591068 13.024000
			CHANNELS 3 Xrotation Yrotation Zrotation
			JOINT LeftFoot
			{
				OFFSET -4.081074 -37.707932 -15.979700
				CHANNELS 3 Xrotation Yrotation Zrotation
				JOINT LeftToeBase
				{
					OFFSET 5.346399 -15.068900 20.645000
					CHANNELS 3 Xrotation Yrotation Zrotation
					JOINT LeftToe_End
					{
						OFFSET 2.754700 0.931300 11.300900
						CHANNELS 3 Xrotation Yrotation Zrotation
						End Site
						{
							OFFSET 0.000000 0.000000 0.000000
						}
					}
				}
			}
		}
	}
	JOINT RightUpLeg
	{
		OFFSET -15.569500 -6.655098 0.678600
		CHANNELS 3 Xrotation Yrotation Zrotation
		JOINT RightLeg
		{
			OFFSET -4.081825 -39.591045 13.023800
			CHANNELS 3 Xrotation Yrotation Zrotation
			JOINT RightFoot
			{
				OFFSET 4.081824 -37.707954 -15.979600
				CHANNELS 3 Xrotation Yrotation Zrotation
				JOINT RightToeBase
				{
					OFFSET -5.346400 -15.068900 20.645000
					CHANNELS 3 Xrotation Yrotation Zrotation
					JOINT RightToe_End
					{
						OFFSET -2.754700 0.931300 11.300900
						CHANNELS 3 Xrotation Yrotation Zrotation
						End Site
						{
							OFFSET 0.000000 0.000000 0.000000
						}
					}
				}
			}
		}
	}
}
MOTION
Frames: 4
Frame Time: 0.016667
0.535091 92.474411 -0.012214 -19.757137 -82.289600 -21.311169 2.270308 0.112165 0.409490 4.588850 0.048052 1.587649 0.000000 0.000000 0.000000 4.566501 0.058988 1.631779 -6.449450 9.163141 -4.228990 1.306332 37.856658 -3.127864 -0.000000 0.000001 -0.000000 -0.232474 4.637874 -1.359674 0.000000 0.000000 0.000000 25.122259 -77.231244 -42.206276 -0.000002 -14.145798 -0.000005 -51.489852 1.622348 10.545759 -3.708775 -5.344631 -9.285591 10.685397 16.536448 0.020107 2.736440 5.880173 2.697144 0.000002 0.000000 0.000000 0.013969 0.439245 -3.642311 0.025877 0.597745 -4.959526 0.006491 0.299154 -2.479709 0.000000 -0.000000 0.000000 0.013834 0.437308 -3.626329 0.026052 0.599685 -4.975527 0.006481 0.299144 -2.479709 0.000003 -0.000001 0.000000 0.013969 0.439245 -3.642311 0.025876 0.597745 -4.959524 0.006488 0.299152 -2.479707 -0.000000 -0.000000 -0.000000 0.254032 4.486455 -3.142210 0.013187 -3.456765 -5.468395 0.006483 0.299147 -2.479710 0.000001 -0.000000 0.000000 1.612992 4.329169 7.043632 0.000000 0.000000 0.000000 8.595128 25.593755 60.579536 0.000004 32.803664 -0.000025 -7.794387 -23.342740 -5.537457 37.238034 11.415920 9.503671 21.038900 -27.717288 1.484818 6.453883 -9.653860 -2.759923 0.000001 0.000003 0.000000 2.191292 -5.070363 46.723531 2.298116 -5.168470 47.920778 0.598775 -2.827569 23.908519 -0.000000 0.000002 -0.000002 2.191293 -5.070363 46.723528 2.298119 -5.168474 47.920778 0.598769 -2.827565 23.908527 0.000000 -0.000003 0.000000 2.191290 -5.070368 46.723531 2.298124 -5.168476 47.920785 0.598776 -2.827568 23.908514 -0.000000 -0.000002 -0.000001 2.191292 -5.070364 46.723528 2.298121 -5.168478 47.920775 0.598776 -2.827566 23.908517 -0.000002 0.000001 -0.000001 -15.880543 14.895451 10.137345 25.358947 -3.152465 4.643569 -8.037328 1.167549 -7.491691 -0.000019 -0.000015 -0.000002 -0.000000 0.000000 -0.000000 -11.746251 -23.524577 -8.121864 22.444427 9.379117 -8.088017 -8.887072 -1.848171 10.340209 -0.001928 -0.000007 0.000000 0.000000 0.000000 -0.000000 
0.529580 92.487030 -0.016817 -19.873907 -82.280632 -21.422972 2.265524 0.102637 0.410697 4.580603 0.031474 1.605107 0.000000 0.000000 0.000000 4.558151 0.042180 1.649045 -6.406088 9.181279 -4.285428 1.307514 37.876763 -3.128333 0.000000 0.000001 -0.000000 -0.234250 4.680285 -1.477822 0.000000 0.000000 0.000000 26.581566 -77.401971 -40.727537 0.000005 -14.148549 0.000007 -51.846474 1.696115 10.532956 -3.708774 -5.344629 -9.285592 10.685390 16.536448 0.020109 2.736440 5.880172 2.697142 0.000001 -0.000000 -0.000000 0.013969 0.439248 -3.642308 0.025878 0.597746 -4.959526 0.006495 0.299155 -2.479709 0.000000 -0.000001 0.000000 0.013836 0.437309 -3.626328 0.026054 0.599686 -4.975526 0.006480 0.299143 -2.479709 -0.000000 0.000001 0.000000 0.013969 0.439248 -3.642308 0.025875 0.597747 -4.959525 0.006487 0.299152 -2.479707 0.000000 -0.000001 0.000000 0.254033 4.486456 -3.142209 0.013188 -3.456765 -5.468395 0.006487 0.299148 -2.479709 0.000001 -0.000001 -0.000000 1.618816 4.365947 6.951331 0.000000 0.000000 0.000000 8.569721 25.644860 60.639178 0.000005 32.733938 -0.000005 -7.806370 -23.236732 -5.557163 37.238195 11.416043 9.503703 21.038980 -27.717365 1.484856 6.453918 -9.653911 -2.759916 -0.000000 0.000000 0.000001 2.191287 -5.070367 46.723524 2.298113 -5.168458 47.920775 0.598779 -2.827559 23.908522 0.000000 -0.000000 -0.000001 2.191288 -5.070367 46.723521 2.298115 -5.168462 47.920771 0.598771 -2.827549 23.908529 0.000000 -0.000004 0.000000 2.191284 -5.070370 46.723518 2.298120 -5.168463 47.920771 0.598778 -2.827559 23.908519 0.000001 0.000002 0.000001 2.191287 -5.070367 46.723521 2.298117 -5.168464 47.920771 0.598775 -2.827558 23.908521 -0.000000 -0.000002 -0.000001 -15.845479 14.908927 10.122293 25.326734 -3.152860 4.655488 -8.021688 1.169040 -7.494854 0.000001 0.000000 -0.000002 0.000000 -0.000000 -0.000000 -11.707384 -23.538649 -8.117739 22.414155 9.392140 -8.087135 -8.878259 -1.851962 10.336902 -0.001956 -0.000010 -0.000000 -0.000000 0.000000 -0.000000 
0.523912 92.499786 -0.020821 -19.988793 -82.271179 -21.538182 2.258797 0.090530 0.416914 4.568350 0.010020 1.625759 0.000000 0.000000 0.000000 4.545689 0.020613 1.669545 -6.358688 9.200894 -4.344189 1.308286 37.902564 -3.127767 0.000000 -0.000003 0.000000 -0.236515 4.731590 -1.616345 0.000000 0.000000 0.000000 28.224946 -77.569086 -39.068231 -0.000003 -14.159481 -0.000013 -52.203204 1.758367 10.523207 -3.708774 -5.344631 -9.285591 10.685393 16.536448 0.020110 2.736439 5.880173 2.697143 -0.000000 -0.000000 -0.000000 0.013967 0.439248 -3.642310 0.025878 0.597744 -4.959524 0.006494 0.299156 -2.479709 0.000001 0.000000 -0.000000 0.013835 0.437308 -3.626329 0.026053 0.599687 -4.975526 0.006479 0.299144 -2.479708 -0.000001 0.000001 0.000000 0.013967 0.439248 -3.642309 0.025875 0.597746 -4.959524 0.006487 0.299152 -2.479707 0.000003 -0.000002 0.000000 0.254032 4.486456 -3.142208 0.013186 -3.456761 -5.468394 0.006483 0.299148 -2.479710 -0.000000 0.000000 0.000000 1.625856 4.410191 6.848790 0.000000 0.000000 0.000000 8.546708 25.709153 60.700970 -0.000003 32.649670 0.000003 -7.850798 -23.139286 -5.600575 37.238369 11.416150 9.503757 21.039054 -27.717454 1.484853 6.453948 -9.653963 -2.759954 -0.000000 0.000003 -0.000000 2.191291 -5.070365 46.723524 2.298112 -5.168466 47.920771 0.598762 -2.827537 23.908527 0.000001 0.000001 -0.000000 2.191291 -5.070365 46.723521 2.298117 -5.168467 47.920771 0.598767 -2.827544 23.908524 -0.000002 -0.000002 0.000001 2.191291 -5.070368 46.723518 2.298116 -5.168463 47.920771 0.598764 -2.827537 23.908526 0.000000 -0.000001 -0.000000 2.191291 -5.070366 46.723521 2.298117 -5.168473 47.920771 0.598761 -2.827538 23.908527 0.000003 -0.000001 -0.000001 -15.808724 14.908199 10.116243 25.295684 -3.149713 4.660227 -8.008815 1.170209 -7.499447 -0.000039 0.000012 -0.000000 -0.000000 -0.000000 0.000000 -11.661891 -23.545817 -8.110239 22.377472 9.399375 -8.076756 -8.867090 -1.855863 10.331568 -0.001978 -0.000016 -0.000001 -0.000000 0.000000 -0.000000 
0.518549 92.512749 -0.024019 -20.093189 -82.260299 -21.647639 2.251035 0.076560 0.428600 4.553620 -0.015303 1.649032 0.000000 0.000000 0.000000 4.530656 -0.004759 1.692760 -6.309808 9.221840 -4.404454 1.308203 37.933289 -3.125742 0.000000 0.000001 -0.000000 -0.239164 4.791730 -1.775042 0.000000 0.000000 0.000000 30.042594 -77.727170 -37.237256 -0.000003 -14.178578 -0.000011 -52.563756 1.800022 10.528904 -3.708775 -5.344630 -9.285594 10.685395 16.536445 0.020110 2.736438 5.880173 2.697142 0.000001 -0.000000 0.000000 0.013968 0.439248 -3.642309 0.025877 0.597745 -4.959526 0.006491 0.299154 -2.479709 -0.000000 -0.000001 -0.000000 0.013834 0.437308 -3.626328 0.026053 0.599687 -4.975526 0.006483 0.299145 -2.479708 -0.000000 0.000000 -0.000000 0.013968 0.439248 -3.642309 0.025874 0.597747 -4.959525 0.006485 0.299153 -2.479707 0.000001 -0.000000 -0.000000 0.254030 4.486456 -3.142208 0.013186 -3.456763 -5.468395 0.006483 0.299149 -2.479710 0.000004 0.000001 -0.000000 1.633869 4.460073 6.738921 0.000000 0.000000 0.000000 8.526321 25.781061 60.764792 -0.000006 32.555267 -0.000011 -7.926596 -23.053072 -5.669107 37.238533 11.416274 9.503810 21.039151 -27.717548 1.484876 6.453997 -9.654007 -2.759933 0.000000 -0.000000 0.000001 2.191280 -5.070361 46.723524 2.298123 -5.168467 47.920771 0.598770 -2.827550 23.908515 0.000001 0.000000 -0.000000 2.191281 -5.070360 46.723524 2.298123 -5.168469 47.920771 0.598768 -2.827551 23.908517 0.000000 -0.000001 0.000001 2.191277 -5.070362 46.723507 2.298127 -5.168473 47.920771 0.598770 -2.827547 23.908512 0.000001 0.000003 -0.000001 2.191280 -5.070361 46.723524 2.298125 -5.168474 47.920764 0.598770 -2.827547 23.908510 0.000001 -0.000003 -0.000002 -15.771578 14.893347 10.116641 25.265409 -3.143338 4.660051 -7.997639 1.171051 -7.505655 0.000002 0.000000 -0.000001 0.000000 0.000000 -0.000000 -11.611345 -23.547755 -8.100977 22.334565 9.401759 -8.056479 -8.853371 -1.860198 10.323996 -0.002002 0.000000 0.000000 -0.000000 0.000000 -0.000000 
